<svg clip-rule="evenodd" fill-rule="evenodd" stroke-linejoin="round" stroke-miterlimit="2" viewBox="0 0 72 48" xmlns="http://www.w3.org/2000/svg"><path d="m72 24c0-13.246-10.754-24-24-24h-24c-13.246 0-24 10.754-24 24s10.754 24 24 24h24c13.246 0 24-10.754 24-24zm-6 0c0 9.934-8.066 18-18 18h-24c-9.934 0-18-8.066-18-18s8.066-18 18-18h24c9.934 0 18 8.066 18 18z"/><path d="m32 10h-8c-7.727 0-14 6.273-14 14s6.273 14 14 14h8v-6h-8c-4.415 0-8-3.585-8-8s3.585-8 8-8h8z"/><path d="m51 19.871v-9.871h-6v9.871l-9.388-3.05-1.854 5.706 9.388 3.05-5.802 7.986 4.854 3.527 5.802-7.986 5.802 7.986 4.854-3.527-5.802-7.986 9.388-3.05-1.854-5.706z"/></svg>